<svg xmlns="http://www.w3.org/2000/svg" width="1600" height="840" viewBox="0 0 1600 840">
<rect width="1600" height="840" fill="#faf8f3"/>
<rect x="24" y="24" width="1552" height="792" fill="none" stroke="#e5e1d6" stroke-width="2" rx="18"/>
<text x="100" y="250" font-family="PingFang TC, Heiti TC, sans-serif" font-size="64" font-weight="600" fill="#2b2b28">髖部卡卡、蹲不下去？</text>
<text x="100" y="350" font-family="PingFang TC, Heiti TC, sans-serif" font-size="44" font-weight="600" fill="#2f5d50">腰椎・骨盆・髖關節</text>
<text x="100" y="425" font-family="PingFang TC, Heiti TC, sans-serif" font-size="34" fill="#6b6a63">是一組緊密相連的齒輪——</text>
<text x="100" y="480" font-family="PingFang TC, Heiti TC, sans-serif" font-size="34" fill="#6b6a63">一個卡住，全身跟著卡。</text>
<text x="100" y="740" font-family="PingFang TC, Heiti TC, sans-serif" font-size="26" fill="#6b6a63" letter-spacing="2">中醫師 黃彥鈞・tcmdrerichuang.com</text>
<path d="M1324.4,195.8 L1341.1,204.9 L1337.6,218.6 L1318.5,218.5 L1307.6,238.3 L1307.0,239.0 L1317.0,255.3 L1307.1,265.4 L1290.6,255.8 L1271.2,267.4 L1270.3,267.8 L1270.8,286.9 L1257.2,290.7 L1247.7,274.1 L1225.2,274.5 L1224.2,274.4 L1215.1,291.1 L1201.4,287.6 L1201.5,268.5 L1181.7,257.6 L1181.0,257.0 L1164.7,267.0 L1154.6,257.1 L1164.2,240.6 L1152.6,221.2 L1152.2,220.3 L1133.1,220.8 L1129.3,207.2 L1145.9,197.7 L1145.5,175.2 L1145.6,174.2 L1128.9,165.1 L1132.4,151.4 L1151.5,151.5 L1162.4,131.7 L1163.0,131.0 L1153.0,114.7 L1162.9,104.6 L1179.4,114.2 L1198.8,102.6 L1199.7,102.2 L1199.2,83.1 L1212.8,79.3 L1222.3,95.9 L1244.8,95.5 L1245.8,95.6 L1254.9,78.9 L1268.6,82.4 L1268.5,101.5 L1288.3,112.4 L1289.0,113.0 L1305.3,103.0 L1315.4,112.9 L1305.8,129.4 L1317.4,148.8 L1317.8,149.7 L1336.9,149.2 L1340.7,162.8 L1324.1,172.3 L1324.5,194.8 Z" fill="#4a7a6a" stroke-linejoin="round" stroke="#4a7a6a" stroke-width="6"/><circle cx="1235" cy="185" r="55.8" fill="#faf8f3" opacity="0.25"/><circle cx="1235" cy="185" r="28.8" fill="#faf8f3"/><circle cx="1235" cy="185" r="28.8" fill="none" stroke="#4a7a6a" stroke-width="5"/>
<path d="M1319.8,452.5 L1341.2,461.1 L1339.2,475.9 L1316.2,478.4 L1308.6,502.3 L1308.2,503.3 L1325.4,518.7 L1318.4,531.9 L1296.0,526.4 L1280.7,546.3 L1279.9,547.0 L1290.8,567.4 L1279.7,577.5 L1260.6,564.6 L1239.3,578.0 L1238.4,578.5 L1241.7,601.3 L1227.8,607.0 L1214.2,588.3 L1189.7,593.7 L1188.6,593.8 L1183.9,616.4 L1168.9,617.0 L1162.5,594.8 L1137.6,591.5 L1136.6,591.2 L1124.4,610.9 L1110.1,606.2 L1111.7,583.2 L1089.5,571.6 L1088.6,571.0 L1070.4,585.3 L1058.6,576.1 L1068.0,554.9 L1051.1,536.4 L1050.4,535.6 L1028.5,542.8 L1020.5,530.0 L1036.5,513.4 L1027.0,490.2 L1026.7,489.2 L1003.6,488.5 L1000.4,473.8 L1021.2,463.6 L1020.1,438.5 L1020.2,437.5 L998.8,428.9 L1000.8,414.1 L1023.8,411.6 L1031.4,387.7 L1031.8,386.7 L1014.6,371.3 L1021.6,358.1 L1044.0,363.6 L1059.3,343.7 L1060.1,343.0 L1049.2,322.6 L1060.3,312.5 L1079.4,325.4 L1100.7,312.0 L1101.6,311.5 L1098.3,288.7 L1112.2,283.0 L1125.8,301.7 L1150.3,296.3 L1151.4,296.2 L1156.1,273.6 L1171.1,273.0 L1177.5,295.2 L1202.4,298.5 L1203.4,298.8 L1215.6,279.1 L1229.9,283.8 L1228.3,306.8 L1250.5,318.4 L1251.4,319.0 L1269.6,304.7 L1281.4,313.9 L1272.0,335.1 L1288.9,353.6 L1289.6,354.4 L1311.5,347.2 L1319.5,360.0 L1303.5,376.6 L1313.0,399.8 L1313.3,400.8 L1336.4,401.5 L1339.6,416.2 L1318.8,426.4 L1319.9,451.5 Z" fill="#2f5d50" stroke-linejoin="round" stroke="#2f5d50" stroke-width="6"/><circle cx="1170" cy="445" r="93.0" fill="#faf8f3" opacity="0.25"/><circle cx="1170" cy="445" r="48.0" fill="#faf8f3"/><circle cx="1170" cy="445" r="48.0" fill="none" stroke="#2f5d50" stroke-width="5"/>
<path d="M1080.2,680.8 L1097.8,692.6 L1092.7,707.2 L1071.5,705.7 L1058.2,727.3 L1057.6,728.2 L1068.3,746.5 L1057.4,757.5 L1039.0,746.9 L1017.6,760.6 L1016.7,761.1 L1018.4,782.3 L1003.8,787.4 L991.8,769.9 L966.6,773.0 L965.5,773.0 L957.9,792.8 L942.5,791.2 L939.2,770.2 L915.2,762.0 L914.3,761.5 L898.8,776.1 L885.6,767.9 L891.8,747.6 L873.7,729.8 L873.1,729.0 L852.8,735.4 L844.5,722.3 L858.9,706.7 L850.3,682.8 L850.1,681.8 L829.1,678.7 L827.3,663.3 L847.0,655.5 L849.6,630.3 L849.8,629.2 L832.2,617.4 L837.3,602.8 L858.5,604.3 L871.8,582.7 L872.4,581.8 L861.7,563.5 L872.6,552.5 L891.0,563.1 L912.4,549.4 L913.3,548.9 L911.6,527.7 L926.2,522.6 L938.2,540.1 L963.4,537.0 L964.5,537.0 L972.1,517.2 L987.5,518.8 L990.8,539.8 L1014.8,548.0 L1015.7,548.5 L1031.2,533.9 L1044.4,542.1 L1038.2,562.4 L1056.3,580.2 L1056.9,581.0 L1077.2,574.6 L1085.5,587.7 L1071.1,603.3 L1079.7,627.2 L1079.9,628.2 L1100.9,631.3 L1102.7,646.7 L1083.0,654.5 L1080.4,679.7 Z" fill="#b0533a" stroke-linejoin="round" stroke="#b0533a" stroke-width="6"/><circle cx="965" cy="655" r="73.16" fill="#faf8f3" opacity="0.25"/><circle cx="965" cy="655" r="37.76" fill="#faf8f3"/><circle cx="965" cy="655" r="37.76" fill="none" stroke="#b0533a" stroke-width="5"/>
<path d="M1109,113 A145,145 0 0 1 1308,59" fill="none" stroke="#4a7a6a" stroke-width="5" stroke-linecap="round"/><path d="M1308,59 L1301,47 M1308,59 L1294,60" stroke="#4a7a6a" stroke-width="5" stroke-linecap="round" fill="none"/>
<path d="M1335,307 A215,215 0 0 1 1356,552" fill="none" stroke="#2f5d50" stroke-width="5" stroke-linecap="round"/><path d="M1356,552 L1368,546 M1356,552 L1356,539" stroke="#2f5d50" stroke-width="5" stroke-linecap="round" fill="none"/>
<polygon points="1058.0,513.8 1059.4,526.6 1072.9,529.0 1060.1,535.8 1061.0,550.3 1050.5,538.1 1035.0,542.2 1043.9,530.7 1037.1,518.0 1049.6,523.6" fill="#d98a3a"/>
<polygon points="1084.7,565.3 1091.3,570.5 1098.5,565.3 1095.9,574.3 1103.0,580.4 1092.6,579.8 1087.6,588.9 1086.2,579.6 1077.3,576.9 1085.5,573.7" fill="#d98a3a"/>
<polygon points="1027.8,498.8 1024.2,505.5 1030.0,511.1 1021.5,510.2 1017.1,517.5 1016.1,508.1 1007.2,504.9 1015.3,502.3 1016.3,493.9 1020.5,500.8" fill="#d98a3a"/>
<path d="M817,570 A170,170 0 0 1 880,507" fill="none" stroke="#b0533a" stroke-width="7" stroke-linecap="round" opacity="0.85"/>
<path d="M794,557 A196,196 0 0 1 867,484" fill="none" stroke="#b0533a" stroke-width="5" stroke-linecap="round" opacity="0.6"/>
<path d="M772,544 A222,222 0 0 1 854,462" fill="none" stroke="#b0533a" stroke-width="3" stroke-linecap="round" opacity="0.35"/>
<line x1="1345" y1="150" x2="1445" y2="105" stroke="#6b6a63" stroke-width="2"/><text x="1455" y="115" font-family="PingFang TC, Heiti TC, sans-serif" font-size="34" font-weight="600" fill="#4a7a6a" text-anchor="start">腰椎</text>
<line x1="1330" y1="500" x2="1450" y2="560" stroke="#6b6a63" stroke-width="2"/><text x="1460" y="570" font-family="PingFang TC, Heiti TC, sans-serif" font-size="34" font-weight="600" fill="#2f5d50" text-anchor="start">骨盆</text>
<line x1="905" y1="760" x2="830" y2="800" stroke="#6b6a63" stroke-width="2"/><text x="820" y="810" font-family="PingFang TC, Heiti TC, sans-serif" font-size="34" font-weight="600" fill="#b0533a" text-anchor="end">髖關節（卡住了）</text>
</svg>